<?xml version="1.0" encoding="UTF-8" standalone="no"?>
<!DOCTYPE svg PUBLIC "-//W3C//DTD SVG 1.1//EN" "http://www.w3.org/Graphics/SVG/1.1/DTD/svg11.dtd">
<svg width="100%" height="100%" viewBox="0 0 140 140" version="1.1" xmlns="http://www.w3.org/2000/svg" xmlns:xlink="http://www.w3.org/1999/xlink" xml:space="preserve" xmlns:serif="http://www.serif.com/" style="fill-rule:evenodd;clip-rule:evenodd;stroke-linejoin:round;stroke-miterlimit:2;">
    <path d="M140,19C140,8.514 131.486,0 121,0L19,0C8.514,0 0,8.514 0,19L0,121C0,131.486 8.514,140 19,140L121,140C131.486,140 140,131.486 140,121L140,19ZM110.588,92.941C120.328,92.941 128.235,100.848 128.235,110.588C128.235,120.328 120.328,128.235 110.588,128.235C100.848,128.235 92.941,120.328 92.941,110.588C92.941,100.848 100.848,92.941 110.588,92.941ZM29.412,92.941C39.151,92.941 47.059,100.848 47.059,110.588C47.059,120.328 39.151,128.235 29.412,128.235C19.672,128.235 11.765,120.328 11.765,110.588C11.765,100.848 19.672,92.941 29.412,92.941ZM110.588,11.765C120.328,11.765 128.235,19.672 128.235,29.412C128.235,39.151 120.328,47.059 110.588,47.059C100.848,47.059 92.941,39.151 92.941,29.412C92.941,19.672 100.848,11.765 110.588,11.765ZM29.412,11.765C39.151,11.765 47.059,19.672 47.059,29.412C47.059,39.151 39.151,47.059 29.412,47.059C19.672,47.059 11.765,39.151 11.765,29.412C11.765,19.672 19.672,11.765 29.412,11.765Z" style="fill:rgb(217,217,217);"/>
</svg>
