<?xml version="1.0" encoding="UTF-8" standalone="no"?>
<!DOCTYPE svg PUBLIC "-//W3C//DTD SVG 1.1//EN" "http://www.w3.org/Graphics/SVG/1.1/DTD/svg11.dtd">
<svg width="100%" height="100%" viewBox="0 0 140 140" version="1.1" xmlns="http://www.w3.org/2000/svg" xmlns:xlink="http://www.w3.org/1999/xlink" xml:space="preserve" xmlns:serif="http://www.serif.com/" style="fill-rule:evenodd;clip-rule:evenodd;stroke-linejoin:round;stroke-miterlimit:2;">
    <path d="M140,20C140,8.962 131.038,0 120,0L20,0C8.962,0 0,8.962 0,20L0,120C0,131.038 8.962,140 20,140L120,140C131.038,140 140,131.038 140,120L140,20ZM110.588,92.941C120.328,92.941 128.235,100.848 128.235,110.588C128.235,120.328 120.328,128.235 110.588,128.235C100.848,128.235 92.941,120.328 92.941,110.588C92.941,100.848 100.848,92.941 110.588,92.941ZM29.412,92.941C39.151,92.941 47.059,100.848 47.059,110.588C47.059,120.328 39.151,128.235 29.412,128.235C19.672,128.235 11.765,120.328 11.765,110.588C11.765,100.848 19.672,92.941 29.412,92.941ZM69.412,52.941C79.151,52.941 87.059,60.849 87.059,70.588C87.059,80.328 79.151,88.235 69.412,88.235C59.672,88.235 51.765,80.328 51.765,70.588C51.765,60.849 59.672,52.941 69.412,52.941ZM29.412,10.588C39.151,10.588 47.059,18.496 47.059,28.235C47.059,37.975 39.151,45.882 29.412,45.882C19.672,45.882 11.765,37.975 11.765,28.235C11.765,18.496 19.672,10.588 29.412,10.588ZM110.588,10.588C120.328,10.588 128.235,18.496 128.235,28.235C128.235,37.975 120.328,45.882 110.588,45.882C100.848,45.882 92.941,37.975 92.941,28.235C92.941,18.496 100.848,10.588 110.588,10.588Z" style="fill:rgb(213,213,213);"/>
</svg>
