<?xml version="1.0" encoding="UTF-8" standalone="no"?>
<!DOCTYPE svg PUBLIC "-//W3C//DTD SVG 1.1//EN" "http://www.w3.org/Graphics/SVG/1.1/DTD/svg11.dtd">
<svg width="100%" height="100%" viewBox="0 0 140 140" version="1.1" xmlns="http://www.w3.org/2000/svg" xmlns:xlink="http://www.w3.org/1999/xlink" xml:space="preserve" xmlns:serif="http://www.serif.com/" style="fill-rule:evenodd;clip-rule:evenodd;stroke-linejoin:round;stroke-miterlimit:2;">
    <path d="M140,20C140,8.962 131.038,0 120,0L20,0C8.962,0 0,8.962 0,20L0,120C0,131.038 8.962,140 20,140L120,140C131.038,140 140,131.038 140,120L140,20ZM110.588,92.941C120.328,92.941 128.235,100.848 128.235,110.588C128.235,120.328 120.328,128.235 110.588,128.235C100.848,128.235 92.941,120.328 92.941,110.588C92.941,100.848 100.848,92.941 110.588,92.941ZM69.412,52.941C79.151,52.941 87.059,60.849 87.059,70.588C87.059,80.328 79.151,88.235 69.412,88.235C59.672,88.235 51.765,80.328 51.765,70.588C51.765,60.849 59.672,52.941 69.412,52.941ZM29.412,11.765C39.151,11.765 47.059,19.672 47.059,29.412C47.059,39.151 39.151,47.059 29.412,47.059C19.672,47.059 11.765,39.151 11.765,29.412C11.765,19.672 19.672,11.765 29.412,11.765Z" style="fill:rgb(213,213,213);"/>
</svg>
