<?xml version="1.0" encoding="UTF-8" standalone="no"?>
<!DOCTYPE svg PUBLIC "-//W3C//DTD SVG 1.1//EN" "http://www.w3.org/Graphics/SVG/1.1/DTD/svg11.dtd">
<svg width="100%" height="100%" viewBox="0 0 140 140" version="1.1" xmlns="http://www.w3.org/2000/svg" xmlns:xlink="http://www.w3.org/1999/xlink" xml:space="preserve" xmlns:serif="http://www.serif.com/" style="fill-rule:evenodd;clip-rule:evenodd;stroke-linejoin:round;stroke-miterlimit:2;">
    <path d="M140,19C140,8.514 131.486,0 121,0L19,0C8.514,0 0,8.514 0,19L0,121C0,131.486 8.514,140 19,140L121,140C131.486,140 140,131.486 140,121L140,19ZM69.412,51.765C79.151,51.765 87.059,59.672 87.059,69.412C87.059,79.151 79.151,87.059 69.412,87.059C59.672,87.059 51.765,79.151 51.765,69.412C51.765,59.672 59.672,51.765 69.412,51.765Z" style="fill:rgb(217,217,217);"/>
</svg>
